<?xml version="1.0" encoding="UTF-8" standalone="no"?>
<!-- Created with Inkscape (http://www.inkscape.org/) -->

<svg
   width="164.77544mm"
   height="167.72389mm"
   viewBox="0 0 164.77544 167.72389"
   version="1.1"
   id="svg1"
   inkscape:version="1.3.2 (091e20e, 2023-11-25, custom)"
   sodipodi:docname="Ołówek.svg"
   inkscape:export-filename="olowek.png"
   inkscape:export-xdpi="96"
   inkscape:export-ydpi="96"
   xmlns:inkscape="http://www.inkscape.org/namespaces/inkscape"
   xmlns:sodipodi="http://sodipodi.sourceforge.net/DTD/sodipodi-0.dtd"
   xmlns="http://www.w3.org/2000/svg"
   xmlns:svg="http://www.w3.org/2000/svg">
  <sodipodi:namedview
     id="namedview1"
     pagecolor="#ffffff"
     bordercolor="#000000"
     borderopacity="0.25"
     inkscape:showpageshadow="2"
     inkscape:pageopacity="0.0"
     inkscape:pagecheckerboard="true"
     inkscape:deskcolor="#d1d1d1"
     inkscape:document-units="mm"
     showgrid="false"
     inkscape:zoom="0.99150697"
     inkscape:cx="378.71645"
     inkscape:cy="540.08698"
     inkscape:window-width="1920"
     inkscape:window-height="1001"
     inkscape:window-x="-9"
     inkscape:window-y="-9"
     inkscape:window-maximized="1"
     inkscape:current-layer="layer1"
     inkscape:export-bgcolor="#ffffff00"
     inkscape:clip-to-page="false">
    <inkscape:grid
       id="grid1"
       units="mm"
       originx="-26.039717"
       originy="-66.138046"
       spacingx="0.99999998"
       spacingy="1"
       empcolor="#0099e5"
       empopacity="0.30196078"
       color="#0099e5"
       opacity="0.14901961"
       empspacing="5"
       dotted="false"
       gridanglex="30"
       gridanglez="30"
       visible="false" />
    <inkscape:page
       x="0"
       y="0"
       width="164.77544"
       height="167.72389"
       id="page2"
       margin="0"
       bleed="0" />
  </sodipodi:namedview>
  <defs
     id="defs1">
    <mask
       maskUnits="userSpaceOnUse"
       id="mask12">
      <path
         style="fill:#999999;fill-opacity:1;stroke:#000000;stroke-width:0.799999;stroke-dasharray:none;stroke-opacity:0"
         d="M 108.96655,75.112343 110,214.99999 l 95,20 V 94.999998 Z"
         id="path13" />
    </mask>
    <clipPath
       clipPathUnits="userSpaceOnUse"
       id="clipPath2">
      <ellipse
         style="fill:#cccccc;fill-opacity:1;stroke:#000000;stroke-width:1.6069;stroke-dasharray:none;stroke-opacity:0"
         id="ellipse3"
         cx="108.89981"
         cy="149.04005"
         rx="80.782448"
         ry="81.469078" />
    </clipPath>
  </defs>
  <g
     inkscape:label="Warstwa 1"
     inkscape:groupmode="layer"
     id="layer1"
     transform="translate(-26.039716,-66.138051)">
    <g
       id="g3"
       transform="translate(0.04160923,0.10109818)">
      <ellipse
         style="fill:#cccccc;fill-opacity:1;stroke:#000000;stroke-width:1.6303;stroke-dasharray:none;stroke-opacity:0"
         id="path11-2"
         cx="108.42744"
         cy="150"
         rx="81.572571"
         ry="83.046799" />
      <path
         id="path11"
         style="fill:#808080;stroke:#000000;stroke-width:1.6303;stroke-opacity:0"
         d="M 190.00001,150 A 81.572571,83.046799 0 0 1 108.42744,233.0468 81.572571,83.046799 0 0 1 26.854866,150 81.572571,83.046799 0 0 1 108.42744,66.953201 81.572571,83.046799 0 0 1 190.00001,150 Z"
         mask="url(#mask12)"
         transform="matrix(1.0097809,0,0,1.0193659,-1.5375137,-1.9263448)"
         clip-path="url(#clipPath2)" />
      <path
         style="fill:#ffe680;fill-opacity:1;stroke:#000000;stroke-width:0.563944;stroke-dasharray:none;stroke-opacity:0"
         d="m 108.70675,75.250283 21.22771,53.595117 c 0,0 -4.51762,3.82439 -7.07959,3.83806 -2.56197,0.0137 -6.70203,-3.54446 -6.70203,-3.54446 z"
         id="path6"
         sodipodi:nodetypes="cczcc" />
      <path
         style="fill:#ffdd55;fill-opacity:1;stroke:#000000;stroke-width:0.565261;stroke-dasharray:none;stroke-opacity:0"
         d="m 108.74166,75.113339 7.50449,53.936791 c 0,0 -4.81212,3.61173 -7.50449,3.53858 -2.69235,-0.0731 -7.12451,-3.83169 -7.12451,-3.83169 z"
         id="path7"
         sodipodi:nodetypes="cczcc" />
      <path
         style="fill:#ffcc00;fill-opacity:1;stroke:#000000;stroke-width:0.563944;stroke-dasharray:none;stroke-opacity:0"
         d="m 108.6957,75.11253 -7.07958,53.73287 c 0,0 -4.441179,3.83806 -7.079584,3.83806 -2.638405,0 -7.079586,-3.83806 -7.079586,-3.83806 z"
         id="path8"
         sodipodi:nodetypes="cczcc" />
      <path
         style="fill:#2b2200;fill-opacity:1;stroke:#000000;stroke-width:0.486214;stroke-dasharray:none;stroke-opacity:0"
         d="m 108.70136,74.643666 -6.00105,15.55701 c 0,0 3.89239,3.375287 6.19131,3.298749 2.17446,-0.0724 5.66808,-3.50385 5.66808,-3.50385 z"
         id="path1"
         sodipodi:nodetypes="ccscc" />
      <path
         id="rect1-4"
         style="fill:#800000;fill-opacity:1;stroke:#000000;stroke-width:0.563944;stroke-opacity:0"
         d="m 87.45695,128.8454 h 14.15917 v 84.59561 3.67982 h -7.079584 c 0,0 -4.247744,-2e-5 -5.663669,-0.76763 -1.415917,-0.76761 -1.415917,-2.30284 -1.415917,-2.30284 z"
         sodipodi:nodetypes="cccccscc" />
      <path
         id="rect1-4-8"
         style="fill:#d40000;fill-opacity:1;stroke:#000000;stroke-width:0.563944;stroke-opacity:0"
         d="m 129.93446,128.8454 h -14.15917 v 84.59561 3.67982 h 7.07958 c 0,0 4.24775,-2e-5 5.66367,-0.76763 1.41592,-0.76761 1.41592,-2.30284 1.41592,-2.30284 z"
         sodipodi:nodetypes="cccccscc" />
      <rect
         style="fill:#aa0000;fill-opacity:1;stroke:#000000;stroke-width:0.571243;stroke-dasharray:none;stroke-opacity:0"
         id="rect1"
         width="14.529256"
         height="88.268127"
         x="101.61977"
         y="128.84904" />
    </g>
    <ellipse
       style="opacity:0;fill:#000000;fill-opacity:0;stroke:#000000;stroke-width:1.6303;stroke-dasharray:none;stroke-opacity:0"
       id="ellipse1"
       cx="108.42744"
       cy="150"
       rx="81.572571"
       ry="83.046799" />
  </g>
</svg>
